<?xml version="1.0" standalone="no"?>
<!DOCTYPE svg PUBLIC "-//W3C//DTD SVG 20010904//EN"
 "http://www.w3.org/TR/2001/REC-SVG-20010904/DTD/svg10.dtd">
<svg version="1.0" xmlns="http://www.w3.org/2000/svg"
 width="700.000000pt" height="700.000000pt" viewBox="0 0 700.000000 700.000000"
 preserveAspectRatio="xMidYMid meet">
<g transform="translate(0.000000,700.000000) scale(0.100000,-0.100000)"
fill="#000000" stroke="none">
<path d="M3464 5628 c-16 -29 -33 -61 -39 -70 -5 -10 -48 -84 -95 -165 -47
-81 -97 -167 -111 -192 -15 -25 -159 -275 -321 -556 -162 -280 -330 -571 -373
-645 -43 -74 -87 -151 -98 -170 -10 -19 -68 -118 -127 -220 -59 -102 -150
-259 -202 -350 -52 -91 -229 -397 -393 -680 -164 -283 -311 -540 -328 -570
-16 -30 -36 -62 -43 -71 -8 -8 -14 -18 -14 -22 0 -4 -180 -320 -209 -367 -22
-35 -131 -229 -131 -234 0 -2 1134 -4 2521 -4 2149 -1 2520 1 2515 13 -4 12
-315 552 -471 820 -29 50 -123 214 -210 365 -87 151 -166 287 -176 302 -11 15
-19 29 -19 32 0 3 -19 38 -43 78 -24 40 -46 80 -50 88 -4 8 -16 29 -26 45 -10
17 -112 192 -226 390 -114 198 -238 412 -275 475 -37 63 -78 133 -90 155 -32
57 -323 563 -383 665 -27 47 -66 114 -87 150 -20 36 -71 124 -113 195 -41 72
-85 149 -98 171 -143 250 -245 424 -250 424 -3 0 -19 -24 -35 -52z"/>
</g>
</svg>
